<!-- icon666.com - MILLIONS OF FREE VECTOR ICONS --><svg version="1.1" id="Capa_1" xmlns="http://www.w3.org/2000/svg" xmlns:xlink="http://www.w3.org/1999/xlink" x="0px" y="0px" viewBox="0 0 409.6 409.6" style="enable-background:new 0 0 409.6 409.6;" xml:space="preserve"><g><g><path d="M273.065,0h-204.8c-18.852,0-34.13,15.263-34.13,34.135v341.33c0,18.836,15.278,34.135,34.13,34.135h273.07 c18.831,0,34.13-15.263,34.13-34.135V102.4L273.065,0z M273.065,48.266l54.134,54.134h-54.134V48.266z M341.335,375.465H68.265 V34.135h170.67V102.4c0,18.836,15.278,34.135,34.13,34.135h68.27V375.465z" fill="#000000" style="fill: rgb(255, 255, 255);"></path></g></g><g><g><path d="M153.6,196.265h17.065v-25.6H153.6c-18.852,0-34.135,15.283-34.135,34.135v102.4c0,18.836,15.283,34.135,34.135,34.135 h17.065v-25.6H153.6c-4.716,0-8.535-3.835-8.535-8.535V204.8C145.065,200.084,148.884,196.265,153.6,196.265z" fill="#000000" style="fill: rgb(255, 255, 255);"></path></g></g><g><g><path d="M256,170.665h-17.065v25.6H256c4.7,0,8.535,3.835,8.535,8.535v102.4c0,4.716-3.835,8.535-8.535,8.535h-17.065v25.6H256 c18.837,0,34.135-15.283,34.135-34.135V204.8C290.135,185.964,274.836,170.665,256,170.665z" fill="#000000" style="fill: rgb(255, 255, 255);"></path></g></g></svg>