<!-- icon666.com - MILLIONS OF FREE VECTOR ICONS --><svg viewBox="0 0 32 32" xmlns="http://www.w3.org/2000/svg"><g id="Icon_copy" data-name="Icon copy"><path d="m14 21h-5a5 5 0 0 1 0-10h5.0586a1 1 0 0 0 0-2h-5.0586a7 7 0 0 0 0 14h5a1 1 0 0 0 0-2z" fill="#000000" style="fill: rgb(255, 255, 255);"></path><path d="m23 9h-5a1 1 0 0 0 0 2h5a5 5 0 0 1 0 10h-5a1 1 0 0 0 0 2h5a7 7 0 0 0 0-14z" fill="#000000" style="fill: rgb(255, 255, 255);"></path><path d="m9 16a1 1 0 0 0 1 1h12a1 1 0 0 0 0-2h-12a1 1 0 0 0 -1 1z" fill="#000000" style="fill: rgb(255, 255, 255);"></path></g></svg>