<!-- icon666.com - MILLIONS OF FREE VECTOR ICONS --><svg version="1.1" id="Capa_1" xmlns="http://www.w3.org/2000/svg" xmlns:xlink="http://www.w3.org/1999/xlink" x="0px" y="0px" viewBox="0 0 422.686 422.686" style="enable-background:new 0 0 422.686 422.686;" xml:space="preserve"><g><g><path style="fill: rgb(255, 255, 255);" d="M211.343,422.686C94.812,422.686,0,327.882,0,211.343C0,94.812,94.812,0,211.343,0 c116.539,0,211.343,94.812,211.343,211.343C422.686,327.882,327.882,422.686,211.343,422.686z M211.343,16.257 c-107.565,0-195.086,87.52-195.086,195.086s87.52,195.086,195.086,195.086s195.086-87.52,195.086-195.086 S318.908,16.257,211.343,16.257z" fill="#010002"></path></g><g><polygon style="fill: rgb(255, 255, 255);" points="196.411,267.78 123.384,194.752 134.877,183.259 196.411,244.792 307.22,133.983 318.713,145.477 " fill="#010002"></polygon></g></g></svg>